<svg width="594" height="155" viewBox="0 0 594 155" fill="none" xmlns="http://www.w3.org/2000/svg">
<path d="M156.552 31.8196H179.988V124.82H156.552V31.8196ZM219.173 106.096L212.849 103.988L253.397 54.1396H278.073L216.941 124.82H196.233V29.3396H219.173V106.096ZM233.309 90.2236L250.421 77.6996L279.933 124.82H253.769L233.309 90.2236ZM309.509 106.096L303.185 103.988L343.733 54.1396H368.409L307.277 124.82H286.569V29.3396H309.509V106.096ZM323.645 90.2236L340.757 77.6996L370.269 124.82H344.105L323.645 90.2236ZM376.905 53.1476L388.313 55.5036L399.845 53.1476V124.82H376.905V53.1476ZM388.437 46.6996C384.386 46.6996 381.08 45.6662 378.517 43.5996C375.954 41.4502 374.673 38.6396 374.673 35.1676C374.673 31.6129 375.954 28.8022 378.517 26.7356C381.08 24.6689 384.386 23.6356 388.437 23.6356C392.57 23.6356 395.877 24.6689 398.357 26.7356C400.837 28.8022 402.077 31.6129 402.077 35.1676C402.077 38.6396 400.837 41.4502 398.357 43.5996C395.877 45.6662 392.57 46.6996 388.437 46.6996ZM411.338 54.1396H434.278L438.866 81.6676V124.82H415.802V78.1956L411.338 54.1396ZM463.666 52.1556C470.114 52.1556 475.57 53.5196 480.034 56.2476C484.581 58.9756 488.011 62.8196 490.326 67.7796C492.723 72.6569 493.922 78.5262 493.922 85.3876V124.82H470.858V88.8596C470.858 82.9902 469.577 78.5676 467.014 75.5916C464.451 72.5329 460.69 71.0036 455.73 71.0036C452.258 71.0036 449.241 71.8302 446.678 73.4836C444.198 75.0542 442.255 77.3276 440.85 80.3036C439.527 83.1969 438.866 86.6689 438.866 90.7196L431.55 86.8756C432.459 79.3529 434.402 73.0289 437.378 67.9036C440.437 62.7782 444.198 58.8929 448.662 56.2476C453.209 53.5196 458.21 52.1556 463.666 52.1556ZM518.598 52.1556C525.046 52.1556 530.543 53.5196 535.09 56.2476C539.637 58.9756 543.067 62.8196 545.382 67.7796C547.779 72.6569 548.978 78.5262 548.978 85.3876V124.82H525.914V88.8596C525.914 82.9902 524.633 78.5676 522.07 75.5916C519.507 72.5329 515.746 71.0036 510.786 71.0036C507.314 71.0036 504.297 71.8302 501.734 73.4836C499.254 75.0542 497.311 77.3276 495.906 80.3036C494.583 83.1969 493.922 86.6689 493.922 90.7196L486.606 86.8756C487.515 79.3529 489.458 73.0289 492.434 67.9036C495.41 62.7782 499.171 58.8929 503.718 56.2476C508.265 53.5196 513.225 52.1556 518.598 52.1556ZM562.905 53.1476L574.313 55.5036L585.845 53.1476V124.82H562.905V53.1476ZM574.437 46.6996C570.386 46.6996 567.08 45.6662 564.517 43.5996C561.954 41.4502 560.673 38.6396 560.673 35.1676C560.673 31.6129 561.954 28.8022 564.517 26.7356C567.08 24.6689 570.386 23.6356 574.437 23.6356C578.57 23.6356 581.877 24.6689 584.357 26.7356C586.837 28.8022 588.077 31.6129 588.077 35.1676C588.077 38.6396 586.837 41.4502 584.357 43.5996C581.877 45.6662 578.57 46.6996 574.437 46.6996Z" fill="#07001A"/>
<path d="M22.3465 89.9729C16.5188 84.1451 16.5188 74.6964 22.3465 68.8687L82.1226 9.09265L124.5 8.92374L43.4507 89.9729C37.623 95.8006 28.1743 95.8006 22.3465 89.9729Z" fill="#563BFF"/>
<path d="M113.653 62.5084C119.481 68.3362 119.481 77.7849 113.653 83.6126L53.8774 143.389L11.5001 143.558L92.5493 62.5084C98.377 56.6807 107.826 56.6807 113.653 62.5084Z" fill="#563BFF"/>
</svg>
